# xmcd
#
# Track frame offsets:
#	150
#	18615
#	42903
#	68778
#	90706
#	110955
#	136299
#	156575
#	176282
#	195520
#	216115
#
# Disc length: 3165 seconds
#
# Revision: 2
# Processed by: cddbd v1.5.2PL0 Copyright (c) Steve Scherf et al.
# Submitted via: audiograbber 1.83.01
#
DISCID=9d0c5b0b
DTITLE=Carol Chase - Blue Highway
DYEAR=2004
DGENRE=Rock
TTITLE0=Back To The Well
TTITLE1=I'm The Blues
TTITLE2=Gotta Serve Somebody
TTITLE3=Let Go
TTITLE4=Blue Highway
TTITLE5=Tough Enough
TTITLE6=In Your Life
TTITLE7=Said A Little Prayer
TTITLE8=The Sun's Gonna Shine Again
TTITLE9=I'm Gettin' Stronger
TTITLE10=A Woman That Perfect
EXTD=
EXTT0=
EXTT1=
EXTT2=
EXTT3=
EXTT4=
EXTT5=
EXTT6=
EXTT7=
EXTT8=
EXTT9=
EXTT10=
PLAYORDER=
